# xmcd
#
# Track frame offsets:
#	150
#	15371
#	30325
#	47955
#	68258
#	87701
#	105672
#	124108
#	141972
#	155083
#	170646
#	186129
#
# Disc length: 2707 seconds
#
# Revision: 0
# Processed by: cddbd v1.5.1PL0 Copyright (c) Steve Scherf et al.
# Submitted via: dBpowerAMP V4.0
#
DISCID=9c0a910c
DTITLE=Akon - Akon
DYEAR=2004
DGENRE=R&B
TTITLE0=I want
TTITLE1=Drop
TTITLE2=Locked up
TTITLE3=Ghetto
TTITLE4=Gangster
TTITLE5=Mr.Lonely
TTITLE6=Banzza Dancer
TTITLE7=Ghetto
TTITLE8=Trouble
TTITLE9=Show Up
TTITLE10=Com On
TTITLE11=Locked up Remix
EXTD=Akon
EXTT0=
EXTT1=
EXTT2=
EXTT3=
EXTT4=
EXTT5=
EXTT6=
EXTT7=
EXTT8=
EXTT9=
EXTT10=
EXTT11=
PLAYORDER=
